<svg width="420" height="94" viewBox="0 0 420 94" fill="none" xmlns="http://www.w3.org/2000/svg">
    <rect x="409" y="25.8438" width="1" height="48" fill="#242424"/>
    <rect x="343" y="73.8438" width="66" height="1" fill="#242424"/>
    <rect x="343" y="24.8438" width="66" height="1" fill="#242424"/>
    <rect width="66" height="48" transform="translate(343 26)" fill="black"/>
    <path d="M343 26H409V74H343V26Z" fill="white"/>
    <path d="M379.796 51.6C380.292 50.576 380.756 49.808 381.188 49.296H367.196V48.288H381.188C380.756 47.776 380.292 47.008 379.796 45.984H380.636C381.644 47.152 382.7 48.016 383.804 48.576V49.008C382.7 49.568 381.644 50.432 380.636 51.6H379.796Z" fill="#242424"/>
    <path d="M5.5 26.5H342.5V73.5H5.5V26.5Z" fill="white" stroke="#242424"/>
    <path d="M30.75 48.7422H25.8203V52.7734H31.5469V54H24.3203V42.625H31.4688V43.8594H25.8203V47.5156H30.75V48.7422ZM34.5547 45.5469L34.6016 46.6094C35.2474 45.7969 36.0911 45.3906 37.1328 45.3906C38.9193 45.3906 39.8203 46.3984 39.8359 48.4141V54H38.3906V48.4062C38.3854 47.7969 38.2448 47.3464 37.9688 47.0547C37.6979 46.763 37.2734 46.6172 36.6953 46.6172C36.2266 46.6172 35.8151 46.7422 35.4609 46.9922C35.1068 47.2422 34.8307 47.5703 34.6328 47.9766V54H33.1875V45.5469H34.5547ZM43.9766 43.5V45.5469H45.5547V46.6641H43.9766V51.9062C43.9766 52.2448 44.0469 52.5 44.1875 52.6719C44.3281 52.8385 44.5677 52.9219 44.9062 52.9219C45.0729 52.9219 45.3021 52.8906 45.5938 52.8281V54C45.2135 54.1042 44.8438 54.1562 44.4844 54.1562C43.8385 54.1562 43.3516 53.9609 43.0234 53.5703C42.6953 53.1797 42.5312 52.625 42.5312 51.9062V46.6641H40.9922V45.5469H42.5312V43.5H43.9766ZM50.7578 54.1562C49.612 54.1562 48.6797 53.7812 47.9609 53.0312C47.2422 52.276 46.8828 51.2682 46.8828 50.0078V49.7422C46.8828 48.9036 47.0417 48.1562 47.3594 47.5C47.6823 46.8385 48.1302 46.3229 48.7031 45.9531C49.2812 45.5781 49.9062 45.3906 50.5781 45.3906C51.6771 45.3906 52.5312 45.7526 53.1406 46.4766C53.75 47.2005 54.0547 48.237 54.0547 49.5859V50.1875H48.3281C48.349 51.0208 48.5911 51.6953 49.0547 52.2109C49.5234 52.7214 50.1172 52.9766 50.8359 52.9766C51.3464 52.9766 51.7786 52.8724 52.1328 52.6641C52.487 52.4557 52.7969 52.1797 53.0625 51.8359L53.9453 52.5234C53.237 53.612 52.1745 54.1562 50.7578 54.1562ZM50.5781 46.5781C49.9948 46.5781 49.5052 46.7917 49.1094 47.2188C48.7135 47.6406 48.4688 48.2344 48.375 49H52.6094V48.8906C52.5677 48.1562 52.3698 47.5885 52.0156 47.1875C51.6615 46.7812 51.1823 46.5781 50.5781 46.5781ZM59.8203 46.8438C59.6016 46.8073 59.3646 46.7891 59.1094 46.7891C58.1615 46.7891 57.5182 47.1927 57.1797 48V54H55.7344V45.5469H57.1406L57.1641 46.5234C57.638 45.7682 58.3099 45.3906 59.1797 45.3906C59.4609 45.3906 59.6745 45.4271 59.8203 45.5V46.8438ZM67.8906 51.8828L69.8594 45.5469H71.4062L68.0078 55.3047C67.4818 56.7109 66.6458 57.4141 65.5 57.4141L65.2266 57.3906L64.6875 57.2891V56.1172L65.0781 56.1484C65.5677 56.1484 65.9479 56.0495 66.2188 55.8516C66.4948 55.6536 66.7214 55.2917 66.8984 54.7656L67.2188 53.9062L64.2031 45.5469H65.7812L67.8906 51.8828ZM72.1953 49.6953C72.1953 48.8672 72.3568 48.1224 72.6797 47.4609C73.0078 46.7995 73.4609 46.2891 74.0391 45.9297C74.6224 45.5703 75.2865 45.3906 76.0312 45.3906C77.1823 45.3906 78.112 45.7891 78.8203 46.5859C79.5339 47.3828 79.8906 48.4427 79.8906 49.7656V49.8672C79.8906 50.6901 79.7318 51.4297 79.4141 52.0859C79.1016 52.737 78.651 53.2448 78.0625 53.6094C77.4792 53.974 76.8073 54.1562 76.0469 54.1562C74.901 54.1562 73.9714 53.7578 73.2578 52.9609C72.5495 52.1641 72.1953 51.1094 72.1953 49.7969V49.6953ZM73.6484 49.8672C73.6484 50.8047 73.8646 51.5573 74.2969 52.125C74.7344 52.6927 75.3177 52.9766 76.0469 52.9766C76.7812 52.9766 77.3646 52.6901 77.7969 52.1172C78.2292 51.5391 78.4453 50.7318 78.4453 49.6953C78.4453 48.7682 78.224 48.0182 77.7812 47.4453C77.3438 46.8672 76.7604 46.5781 76.0312 46.5781C75.3177 46.5781 74.7422 46.862 74.3047 47.4297C73.8672 47.9974 73.6484 48.8099 73.6484 49.8672ZM86.9219 53.1641C86.3594 53.8255 85.5339 54.1562 84.4453 54.1562C83.5443 54.1562 82.8568 53.8958 82.3828 53.375C81.9141 52.849 81.6771 52.0729 81.6719 51.0469V45.5469H83.1172V51.0078C83.1172 52.2891 83.638 52.9297 84.6797 52.9297C85.7839 52.9297 86.5182 52.5182 86.8828 51.6953V45.5469H88.3281V54H86.9531L86.9219 53.1641ZM94.6172 46.8438C94.3984 46.8073 94.1615 46.7891 93.9062 46.7891C92.9583 46.7891 92.3151 47.1927 91.9766 48V54H90.5312V45.5469H91.9375L91.9609 46.5234C92.4349 45.7682 93.1068 45.3906 93.9766 45.3906C94.2578 45.3906 94.4714 45.4271 94.6172 45.5V46.8438ZM103.43 54.1562C102.284 54.1562 101.352 53.7812 100.633 53.0312C99.9141 52.276 99.5547 51.2682 99.5547 50.0078V49.7422C99.5547 48.9036 99.7135 48.1562 100.031 47.5C100.354 46.8385 100.802 46.3229 101.375 45.9531C101.953 45.5781 102.578 45.3906 103.25 45.3906C104.349 45.3906 105.203 45.7526 105.812 46.4766C106.422 47.2005 106.727 48.237 106.727 49.5859V50.1875H101C101.021 51.0208 101.263 51.6953 101.727 52.2109C102.195 52.7214 102.789 52.9766 103.508 52.9766C104.018 52.9766 104.451 52.8724 104.805 52.6641C105.159 52.4557 105.469 52.1797 105.734 51.8359L106.617 52.5234C105.909 53.612 104.846 54.1562 103.43 54.1562ZM103.25 46.5781C102.667 46.5781 102.177 46.7917 101.781 47.2188C101.385 47.6406 101.141 48.2344 101.047 49H105.281V48.8906C105.24 48.1562 105.042 47.5885 104.688 47.1875C104.333 46.7812 103.854 46.5781 103.25 46.5781ZM109.766 45.5469L109.805 46.4844C110.424 45.7552 111.26 45.3906 112.312 45.3906C113.495 45.3906 114.299 45.8438 114.727 46.75C115.008 46.3438 115.372 46.0156 115.82 45.7656C116.273 45.5156 116.807 45.3906 117.422 45.3906C119.276 45.3906 120.219 46.3724 120.25 48.3359V54H118.805V48.4219C118.805 47.8177 118.667 47.3672 118.391 47.0703C118.115 46.7682 117.651 46.6172 117 46.6172C116.464 46.6172 116.018 46.7786 115.664 47.1016C115.31 47.4193 115.104 47.849 115.047 48.3906V54H113.594V48.4609C113.594 47.2318 112.992 46.6172 111.789 46.6172C110.841 46.6172 110.193 47.0208 109.844 47.8281V54H108.398V45.5469H109.766ZM127.656 54C127.573 53.8333 127.505 53.5365 127.453 53.1094C126.781 53.8073 125.979 54.1562 125.047 54.1562C124.214 54.1562 123.529 53.9219 122.992 53.4531C122.461 52.9792 122.195 52.3802 122.195 51.6562C122.195 50.776 122.529 50.0938 123.195 49.6094C123.867 49.1198 124.81 48.875 126.023 48.875H127.43V48.2109C127.43 47.7057 127.279 47.3047 126.977 47.0078C126.674 46.7057 126.229 46.5547 125.641 46.5547C125.125 46.5547 124.693 46.6849 124.344 46.9453C123.995 47.2057 123.82 47.5208 123.82 47.8906H122.367C122.367 47.4688 122.516 47.0625 122.812 46.6719C123.115 46.276 123.521 45.9635 124.031 45.7344C124.547 45.5052 125.112 45.3906 125.727 45.3906C126.701 45.3906 127.464 45.6354 128.016 46.125C128.568 46.6094 128.854 47.2786 128.875 48.1328V52.0234C128.875 52.7995 128.974 53.4167 129.172 53.875V54H127.656ZM125.258 52.8984C125.711 52.8984 126.141 52.7812 126.547 52.5469C126.953 52.3125 127.247 52.0078 127.43 51.6328V49.8984H126.297C124.526 49.8984 123.641 50.4167 123.641 51.4531C123.641 51.9062 123.792 52.2604 124.094 52.5156C124.396 52.7708 124.784 52.8984 125.258 52.8984ZM132.711 54H131.266V45.5469H132.711V54ZM131.148 43.3047C131.148 43.0703 131.219 42.8724 131.359 42.7109C131.505 42.5495 131.719 42.4688 132 42.4688C132.281 42.4688 132.495 42.5495 132.641 42.7109C132.786 42.8724 132.859 43.0703 132.859 43.3047C132.859 43.5391 132.786 43.7344 132.641 43.8906C132.495 44.0469 132.281 44.125 132 44.125C131.719 44.125 131.505 44.0469 131.359 43.8906C131.219 43.7344 131.148 43.5391 131.148 43.3047ZM136.602 54H135.156V42H136.602V54Z" fill="#1A1A1A" fill-opacity="0.5"/>
</svg>
