<svg width="410" height="74" viewBox="0 0 410 74" fill="none" xmlns="http://www.w3.org/2000/svg">
    <rect x="404" y="15.8438" width="1" height="48" fill="#242424"/>
    <rect x="338" y="63.8438" width="66" height="1" fill="#242424"/>
    <rect x="338" y="14.8438" width="66" height="1" fill="#242424"/>
    <rect width="66" height="48" transform="translate(338 16)" fill="black"/>
    <path d="M338 16H404V64H338V16Z" fill="white"/>
    <path d="M374.796 41.6C375.292 40.576 375.756 39.808 376.188 39.296H362.196V38.288H376.188C375.756 37.776 375.292 37.008 374.796 35.984H375.636C376.644 37.152 377.7 38.016 378.804 38.576V39.008C377.7 39.568 376.644 40.432 375.636 41.6H374.796Z" fill="#242424"/>
    <path d="M0.5 16.5H337.5V63.5H0.5V16.5Z" fill="white" stroke="#242424"/>
    <path d="M25.75 38.7422H20.8203V42.7734H26.5469V44H19.3203V32.625H26.4688V33.8594H20.8203V37.5156H25.75V38.7422ZM29.5547 35.5469L29.6016 36.6094C30.2474 35.7969 31.0911 35.3906 32.1328 35.3906C33.9193 35.3906 34.8203 36.3984 34.8359 38.4141V44H33.3906V38.4062C33.3854 37.7969 33.2448 37.3464 32.9688 37.0547C32.6979 36.763 32.2734 36.6172 31.6953 36.6172C31.2266 36.6172 30.8151 36.7422 30.4609 36.9922C30.1068 37.2422 29.8307 37.5703 29.6328 37.9766V44H28.1875V35.5469H29.5547ZM38.9766 33.5V35.5469H40.5547V36.6641H38.9766V41.9062C38.9766 42.2448 39.0469 42.5 39.1875 42.6719C39.3281 42.8385 39.5677 42.9219 39.9062 42.9219C40.0729 42.9219 40.3021 42.8906 40.5938 42.8281V44C40.2135 44.1042 39.8438 44.1562 39.4844 44.1562C38.8385 44.1562 38.3516 43.9609 38.0234 43.5703C37.6953 43.1797 37.5312 42.625 37.5312 41.9062V36.6641H35.9922V35.5469H37.5312V33.5H38.9766ZM45.7578 44.1562C44.612 44.1562 43.6797 43.7812 42.9609 43.0312C42.2422 42.276 41.8828 41.2682 41.8828 40.0078V39.7422C41.8828 38.9036 42.0417 38.1562 42.3594 37.5C42.6823 36.8385 43.1302 36.3229 43.7031 35.9531C44.2812 35.5781 44.9062 35.3906 45.5781 35.3906C46.6771 35.3906 47.5312 35.7526 48.1406 36.4766C48.75 37.2005 49.0547 38.237 49.0547 39.5859V40.1875H43.3281C43.349 41.0208 43.5911 41.6953 44.0547 42.2109C44.5234 42.7214 45.1172 42.9766 45.8359 42.9766C46.3464 42.9766 46.7786 42.8724 47.1328 42.6641C47.487 42.4557 47.7969 42.1797 48.0625 41.8359L48.9453 42.5234C48.237 43.612 47.1745 44.1562 45.7578 44.1562ZM45.5781 36.5781C44.9948 36.5781 44.5052 36.7917 44.1094 37.2188C43.7135 37.6406 43.4688 38.2344 43.375 39H47.6094V38.8906C47.5677 38.1562 47.3698 37.5885 47.0156 37.1875C46.6615 36.7812 46.1823 36.5781 45.5781 36.5781ZM54.8203 36.8438C54.6016 36.8073 54.3646 36.7891 54.1094 36.7891C53.1615 36.7891 52.5182 37.1927 52.1797 38V44H50.7344V35.5469H52.1406L52.1641 36.5234C52.638 35.7682 53.3099 35.3906 54.1797 35.3906C54.4609 35.3906 54.6745 35.4271 54.8203 35.5V36.8438ZM62.8906 41.8828L64.8594 35.5469H66.4062L63.0078 45.3047C62.4818 46.7109 61.6458 47.4141 60.5 47.4141L60.2266 47.3906L59.6875 47.2891V46.1172L60.0781 46.1484C60.5677 46.1484 60.9479 46.0495 61.2188 45.8516C61.4948 45.6536 61.7214 45.2917 61.8984 44.7656L62.2188 43.9062L59.2031 35.5469H60.7812L62.8906 41.8828ZM67.1953 39.6953C67.1953 38.8672 67.3568 38.1224 67.6797 37.4609C68.0078 36.7995 68.4609 36.2891 69.0391 35.9297C69.6224 35.5703 70.2865 35.3906 71.0312 35.3906C72.1823 35.3906 73.112 35.7891 73.8203 36.5859C74.5339 37.3828 74.8906 38.4427 74.8906 39.7656V39.8672C74.8906 40.6901 74.7318 41.4297 74.4141 42.0859C74.1016 42.737 73.651 43.2448 73.0625 43.6094C72.4792 43.974 71.8073 44.1562 71.0469 44.1562C69.901 44.1562 68.9714 43.7578 68.2578 42.9609C67.5495 42.1641 67.1953 41.1094 67.1953 39.7969V39.6953ZM68.6484 39.8672C68.6484 40.8047 68.8646 41.5573 69.2969 42.125C69.7344 42.6927 70.3177 42.9766 71.0469 42.9766C71.7812 42.9766 72.3646 42.6901 72.7969 42.1172C73.2292 41.5391 73.4453 40.7318 73.4453 39.6953C73.4453 38.7682 73.224 38.0182 72.7812 37.4453C72.3438 36.8672 71.7604 36.5781 71.0312 36.5781C70.3177 36.5781 69.7422 36.862 69.3047 37.4297C68.8672 37.9974 68.6484 38.8099 68.6484 39.8672ZM81.9219 43.1641C81.3594 43.8255 80.5339 44.1562 79.4453 44.1562C78.5443 44.1562 77.8568 43.8958 77.3828 43.375C76.9141 42.849 76.6771 42.0729 76.6719 41.0469V35.5469H78.1172V41.0078C78.1172 42.2891 78.638 42.9297 79.6797 42.9297C80.7839 42.9297 81.5182 42.5182 81.8828 41.6953V35.5469H83.3281V44H81.9531L81.9219 43.1641ZM89.6172 36.8438C89.3984 36.8073 89.1615 36.7891 88.9062 36.7891C87.9583 36.7891 87.3151 37.1927 86.9766 38V44H85.5312V35.5469H86.9375L86.9609 36.5234C87.4349 35.7682 88.1068 35.3906 88.9766 35.3906C89.2578 35.3906 89.4714 35.4271 89.6172 35.5V36.8438ZM98.4297 44.1562C97.2839 44.1562 96.3516 43.7812 95.6328 43.0312C94.9141 42.276 94.5547 41.2682 94.5547 40.0078V39.7422C94.5547 38.9036 94.7135 38.1562 95.0312 37.5C95.3542 36.8385 95.8021 36.3229 96.375 35.9531C96.9531 35.5781 97.5781 35.3906 98.25 35.3906C99.349 35.3906 100.203 35.7526 100.812 36.4766C101.422 37.2005 101.727 38.237 101.727 39.5859V40.1875H96C96.0208 41.0208 96.263 41.6953 96.7266 42.2109C97.1953 42.7214 97.7891 42.9766 98.5078 42.9766C99.0182 42.9766 99.4505 42.8724 99.8047 42.6641C100.159 42.4557 100.469 42.1797 100.734 41.8359L101.617 42.5234C100.909 43.612 99.8464 44.1562 98.4297 44.1562ZM98.25 36.5781C97.6667 36.5781 97.1771 36.7917 96.7812 37.2188C96.3854 37.6406 96.1406 38.2344 96.0469 39H100.281V38.8906C100.24 38.1562 100.042 37.5885 99.6875 37.1875C99.3333 36.7812 98.8542 36.5781 98.25 36.5781ZM104.766 35.5469L104.805 36.4844C105.424 35.7552 106.26 35.3906 107.312 35.3906C108.495 35.3906 109.299 35.8438 109.727 36.75C110.008 36.3438 110.372 36.0156 110.82 35.7656C111.273 35.5156 111.807 35.3906 112.422 35.3906C114.276 35.3906 115.219 36.3724 115.25 38.3359V44H113.805V38.4219C113.805 37.8177 113.667 37.3672 113.391 37.0703C113.115 36.7682 112.651 36.6172 112 36.6172C111.464 36.6172 111.018 36.7786 110.664 37.1016C110.31 37.4193 110.104 37.849 110.047 38.3906V44H108.594V38.4609C108.594 37.2318 107.992 36.6172 106.789 36.6172C105.841 36.6172 105.193 37.0208 104.844 37.8281V44H103.398V35.5469H104.766ZM122.656 44C122.573 43.8333 122.505 43.5365 122.453 43.1094C121.781 43.8073 120.979 44.1562 120.047 44.1562C119.214 44.1562 118.529 43.9219 117.992 43.4531C117.461 42.9792 117.195 42.3802 117.195 41.6562C117.195 40.776 117.529 40.0938 118.195 39.6094C118.867 39.1198 119.81 38.875 121.023 38.875H122.43V38.2109C122.43 37.7057 122.279 37.3047 121.977 37.0078C121.674 36.7057 121.229 36.5547 120.641 36.5547C120.125 36.5547 119.693 36.6849 119.344 36.9453C118.995 37.2057 118.82 37.5208 118.82 37.8906H117.367C117.367 37.4688 117.516 37.0625 117.812 36.6719C118.115 36.276 118.521 35.9635 119.031 35.7344C119.547 35.5052 120.112 35.3906 120.727 35.3906C121.701 35.3906 122.464 35.6354 123.016 36.125C123.568 36.6094 123.854 37.2786 123.875 38.1328V42.0234C123.875 42.7995 123.974 43.4167 124.172 43.875V44H122.656ZM120.258 42.8984C120.711 42.8984 121.141 42.7812 121.547 42.5469C121.953 42.3125 122.247 42.0078 122.43 41.6328V39.8984H121.297C119.526 39.8984 118.641 40.4167 118.641 41.4531C118.641 41.9062 118.792 42.2604 119.094 42.5156C119.396 42.7708 119.784 42.8984 120.258 42.8984ZM127.711 44H126.266V35.5469H127.711V44ZM126.148 33.3047C126.148 33.0703 126.219 32.8724 126.359 32.7109C126.505 32.5495 126.719 32.4688 127 32.4688C127.281 32.4688 127.495 32.5495 127.641 32.7109C127.786 32.8724 127.859 33.0703 127.859 33.3047C127.859 33.5391 127.786 33.7344 127.641 33.8906C127.495 34.0469 127.281 34.125 127 34.125C126.719 34.125 126.505 34.0469 126.359 33.8906C126.219 33.7344 126.148 33.5391 126.148 33.3047ZM131.602 44H130.156V32H131.602V44Z" fill="#1A1A1A" fill-opacity="0.5"/>
</svg>
