<svg width="113" height="28" viewBox="0 0 113 28" fill="none" xmlns="http://www.w3.org/2000/svg">
    <path d="M0.5 0.5H112.5V27.5H0.5V0.5Z" fill="#1A1A1A" stroke="#1A1A1A"/>
    <path d="M19.3047 15.1973C18.3398 14.9199 17.6367 14.5801 17.1953 14.1777C16.7578 13.7715 16.5391 13.2715 16.5391 12.6777C16.5391 12.0059 16.8066 11.4512 17.3418 11.0137C17.8809 10.5723 18.5801 10.3516 19.4395 10.3516C20.0254 10.3516 20.5469 10.4648 21.0039 10.6914C21.4648 10.918 21.8203 11.2305 22.0703 11.6289C22.3242 12.0273 22.4512 12.4629 22.4512 12.9355H21.3203C21.3203 12.4199 21.1562 12.0156 20.8281 11.7227C20.5 11.4258 20.0371 11.2773 19.4395 11.2773C18.8848 11.2773 18.4512 11.4004 18.1387 11.6465C17.8301 11.8887 17.6758 12.2266 17.6758 12.6602C17.6758 13.0078 17.8223 13.3027 18.1152 13.5449C18.4121 13.7832 18.9141 14.002 19.6211 14.2012C20.332 14.4004 20.8867 14.6211 21.2852 14.8633C21.6875 15.1016 21.9844 15.3809 22.1758 15.7012C22.3711 16.0215 22.4688 16.3984 22.4688 16.832C22.4688 17.5234 22.1992 18.0781 21.6602 18.4961C21.1211 18.9102 20.4004 19.1172 19.498 19.1172C18.9121 19.1172 18.3652 19.0059 17.8574 18.7832C17.3496 18.5566 16.957 18.248 16.6797 17.8574C16.4062 17.4668 16.2695 17.0234 16.2695 16.5273H17.4004C17.4004 17.043 17.5898 17.4512 17.9688 17.752C18.3516 18.0488 18.8613 18.1973 19.498 18.1973C20.0918 18.1973 20.5469 18.0762 20.8633 17.834C21.1797 17.5918 21.3379 17.2617 21.3379 16.8438C21.3379 16.4258 21.1914 16.1035 20.8984 15.877C20.6055 15.6465 20.0742 15.4199 19.3047 15.1973ZM24.8301 13.4277C25.3105 12.8379 25.9355 12.543 26.7051 12.543C28.0449 12.543 28.7207 13.2988 28.7324 14.8105V19H27.6484V14.8047C27.6445 14.3477 27.5391 14.0098 27.332 13.791C27.1289 13.5723 26.8105 13.4629 26.377 13.4629C26.0254 13.4629 25.7168 13.5566 25.4512 13.7441C25.1855 13.9316 24.9785 14.1777 24.8301 14.4824V19H23.7461V10H24.8301V13.4277ZM30.0684 15.7715C30.0684 15.1504 30.1895 14.5918 30.4316 14.0957C30.6777 13.5996 31.0176 13.2168 31.4512 12.9473C31.8887 12.6777 32.3867 12.543 32.9453 12.543C33.8086 12.543 34.5059 12.8418 35.0371 13.4395C35.5723 14.0371 35.8398 14.832 35.8398 15.8242V15.9004C35.8398 16.5176 35.7207 17.0723 35.4824 17.5645C35.248 18.0527 34.9102 18.4336 34.4688 18.707C34.0312 18.9805 33.5273 19.1172 32.957 19.1172C32.0977 19.1172 31.4004 18.8184 30.8652 18.2207C30.334 17.623 30.0684 16.832 30.0684 15.8477V15.7715ZM31.1582 15.9004C31.1582 16.6035 31.3203 17.168 31.6445 17.5938C31.9727 18.0195 32.4102 18.2324 32.957 18.2324C33.5078 18.2324 33.9453 18.0176 34.2695 17.5879C34.5938 17.1543 34.7559 16.5488 34.7559 15.7715C34.7559 15.0762 34.5898 14.5137 34.2578 14.084C33.9297 13.6504 33.4922 13.4336 32.9453 13.4336C32.4102 13.4336 31.9785 13.6465 31.6504 14.0723C31.3223 14.498 31.1582 15.1074 31.1582 15.9004ZM42.5547 15.9004C42.5547 16.8652 42.334 17.6426 41.8926 18.2324C41.4512 18.8223 40.8535 19.1172 40.0996 19.1172C39.3301 19.1172 38.7246 18.873 38.2832 18.3848V21.4375H37.1992V12.6602H38.1895L38.2422 13.3633C38.6836 12.8164 39.2969 12.543 40.082 12.543C40.8438 12.543 41.4453 12.8301 41.8867 13.4043C42.332 13.9785 42.5547 14.7773 42.5547 15.8008V15.9004ZM41.4707 15.7773C41.4707 15.0625 41.3184 14.498 41.0137 14.084C40.709 13.6699 40.291 13.4629 39.7598 13.4629C39.1035 13.4629 38.6113 13.7539 38.2832 14.3359V17.3652C38.6074 17.9434 39.1035 18.2324 39.7715 18.2324C40.291 18.2324 40.7031 18.0273 41.0078 17.6172C41.3164 17.2031 41.4707 16.5898 41.4707 15.7773ZM48.3848 11.125V12.6602H49.5684V13.498H48.3848V17.4297C48.3848 17.6836 48.4375 17.875 48.543 18.0039C48.6484 18.1289 48.8281 18.1914 49.082 18.1914C49.207 18.1914 49.3789 18.168 49.5977 18.1211V19C49.3125 19.0781 49.0352 19.1172 48.7656 19.1172C48.2812 19.1172 47.916 18.9707 47.6699 18.6777C47.4238 18.3848 47.3008 17.9688 47.3008 17.4297V13.498H46.1465V12.6602H47.3008V11.125H48.3848ZM51.9238 13.4277C52.4043 12.8379 53.0293 12.543 53.7988 12.543C55.1387 12.543 55.8145 13.2988 55.8262 14.8105V19H54.7422V14.8047C54.7383 14.3477 54.6328 14.0098 54.4258 13.791C54.2227 13.5723 53.9043 13.4629 53.4707 13.4629C53.1191 13.4629 52.8105 13.5566 52.5449 13.7441C52.2793 13.9316 52.0723 14.1777 51.9238 14.4824V19H50.8398V10H51.9238V13.4277ZM60.0801 19.1172C59.2207 19.1172 58.5215 18.8359 57.9824 18.2734C57.4434 17.707 57.1738 16.9512 57.1738 16.0059V15.8066C57.1738 15.1777 57.293 14.6172 57.5312 14.125C57.7734 13.6289 58.1094 13.2422 58.5391 12.9648C58.9727 12.6836 59.4414 12.543 59.9453 12.543C60.7695 12.543 61.4102 12.8145 61.8672 13.3574C62.3242 13.9004 62.5527 14.6777 62.5527 15.6895V16.1406H58.2578C58.2734 16.7656 58.4551 17.2715 58.8027 17.6582C59.1543 18.041 59.5996 18.2324 60.1387 18.2324C60.5215 18.2324 60.8457 18.1543 61.1113 17.998C61.377 17.8418 61.6094 17.6348 61.8086 17.377L62.4707 17.8926C61.9395 18.709 61.1426 19.1172 60.0801 19.1172ZM59.9453 13.4336C59.5078 13.4336 59.1406 13.5938 58.8438 13.9141C58.5469 14.2305 58.3633 14.6758 58.293 15.25H61.4688V15.168C61.4375 14.6172 61.2891 14.1914 61.0234 13.8906C60.7578 13.5859 60.3984 13.4336 59.9453 13.4336ZM69.4727 15.1973C68.5078 14.9199 67.8047 14.5801 67.3633 14.1777C66.9258 13.7715 66.707 13.2715 66.707 12.6777C66.707 12.0059 66.9746 11.4512 67.5098 11.0137C68.0488 10.5723 68.748 10.3516 69.6074 10.3516C70.1934 10.3516 70.7148 10.4648 71.1719 10.6914C71.6328 10.918 71.9883 11.2305 72.2383 11.6289C72.4922 12.0273 72.6191 12.4629 72.6191 12.9355H71.4883C71.4883 12.4199 71.3242 12.0156 70.9961 11.7227C70.668 11.4258 70.2051 11.2773 69.6074 11.2773C69.0527 11.2773 68.6191 11.4004 68.3066 11.6465C67.998 11.8887 67.8438 12.2266 67.8438 12.6602C67.8438 13.0078 67.9902 13.3027 68.2832 13.5449C68.5801 13.7832 69.082 14.002 69.7891 14.2012C70.5 14.4004 71.0547 14.6211 71.4531 14.8633C71.8555 15.1016 72.1523 15.3809 72.3438 15.7012C72.5391 16.0215 72.6367 16.3984 72.6367 16.832C72.6367 17.5234 72.3672 18.0781 71.8281 18.4961C71.2891 18.9102 70.5684 19.1172 69.666 19.1172C69.0801 19.1172 68.5332 19.0059 68.0254 18.7832C67.5176 18.5566 67.125 18.248 66.8477 17.8574C66.5742 17.4668 66.4375 17.0234 66.4375 16.5273H67.5684C67.5684 17.043 67.7578 17.4512 68.1367 17.752C68.5195 18.0488 69.0293 18.1973 69.666 18.1973C70.2598 18.1973 70.7148 18.0762 71.0312 17.834C71.3477 17.5918 71.5059 17.2617 71.5059 16.8438C71.5059 16.4258 71.3594 16.1035 71.0664 15.877C70.7734 15.6465 70.2422 15.4199 69.4727 15.1973ZM77.8281 19C77.7656 18.875 77.7148 18.6523 77.6758 18.332C77.1719 18.8555 76.5703 19.1172 75.8711 19.1172C75.2461 19.1172 74.7324 18.9414 74.3301 18.5898C73.9316 18.2344 73.7324 17.7852 73.7324 17.2422C73.7324 16.582 73.9824 16.0703 74.4824 15.707C74.9863 15.3398 75.6934 15.1562 76.6035 15.1562H77.6582V14.6582C77.6582 14.2793 77.5449 13.9785 77.3184 13.7559C77.0918 13.5293 76.7578 13.416 76.3164 13.416C75.9297 13.416 75.6055 13.5137 75.3438 13.709C75.082 13.9043 74.9512 14.1406 74.9512 14.418H73.8613C73.8613 14.1016 73.9727 13.7969 74.1953 13.5039C74.4219 13.207 74.7266 12.9727 75.1094 12.8008C75.4961 12.6289 75.9199 12.543 76.3809 12.543C77.1113 12.543 77.6836 12.7266 78.0977 13.0938C78.5117 13.457 78.7266 13.959 78.7422 14.5996V17.5176C78.7422 18.0996 78.8164 18.5625 78.9648 18.9062V19H77.8281ZM76.0293 18.1738C76.3691 18.1738 76.6914 18.0859 76.9961 17.9102C77.3008 17.7344 77.5215 17.5059 77.6582 17.2246V15.9238H76.8086C75.4805 15.9238 74.8164 16.3125 74.8164 17.0898C74.8164 17.4297 74.9297 17.6953 75.1562 17.8867C75.3828 18.0781 75.6738 18.1738 76.0293 18.1738ZM81.6191 19H80.5352V10H81.6191V19ZM85.9902 19.1172C85.1309 19.1172 84.4316 18.8359 83.8926 18.2734C83.3535 17.707 83.084 16.9512 83.084 16.0059V15.8066C83.084 15.1777 83.2031 14.6172 83.4414 14.125C83.6836 13.6289 84.0195 13.2422 84.4492 12.9648C84.8828 12.6836 85.3516 12.543 85.8555 12.543C86.6797 12.543 87.3203 12.8145 87.7773 13.3574C88.2344 13.9004 88.4629 14.6777 88.4629 15.6895V16.1406H84.168C84.1836 16.7656 84.3652 17.2715 84.7129 17.6582C85.0645 18.041 85.5098 18.2324 86.0488 18.2324C86.4316 18.2324 86.7559 18.1543 87.0215 17.998C87.2871 17.8418 87.5195 17.6348 87.7188 17.377L88.3809 17.8926C87.8496 18.709 87.0527 19.1172 85.9902 19.1172ZM85.8555 13.4336C85.418 13.4336 85.0508 13.5938 84.7539 13.9141C84.457 14.2305 84.2734 14.6758 84.2031 15.25H87.3789V15.168C87.3477 14.6172 87.1992 14.1914 86.9336 13.8906C86.668 13.5859 86.3086 13.4336 85.8555 13.4336Z" fill="#F7F7F7"/>
</svg>
