<svg width="302" height="56" viewBox="0 0 302 56" fill="none" xmlns="http://www.w3.org/2000/svg">
    <path d="M0.5 0.5H301.5V55.5H0.5V0.5Z" fill="#1A1A1A" stroke="#1A1A1A"/>
    <path d="M68.7246 29.6621C67.1165 29.1999 65.9447 28.6335 65.209 27.9629C64.4798 27.2858 64.1152 26.4525 64.1152 25.4629C64.1152 24.3431 64.5612 23.4186 65.4531 22.6895C66.3516 21.9538 67.5169 21.5859 68.9492 21.5859C69.9258 21.5859 70.7949 21.7747 71.5566 22.1523C72.3249 22.5299 72.9173 23.0508 73.334 23.7148C73.7572 24.3789 73.9688 25.1048 73.9688 25.8926H72.084C72.084 25.0332 71.8105 24.3594 71.2637 23.8711C70.7168 23.3763 69.9453 23.1289 68.9492 23.1289C68.0247 23.1289 67.3021 23.334 66.7812 23.7441C66.2669 24.1478 66.0098 24.7109 66.0098 25.4336C66.0098 26.013 66.2539 26.5046 66.7422 26.9082C67.237 27.3053 68.0736 27.6699 69.252 28.002C70.4368 28.334 71.3613 28.7018 72.0254 29.1055C72.696 29.5026 73.1908 29.9681 73.5098 30.502C73.8353 31.0358 73.998 31.6641 73.998 32.3867C73.998 33.5391 73.5488 34.4635 72.6504 35.1602C71.752 35.8503 70.5508 36.1953 69.0469 36.1953C68.0703 36.1953 67.1589 36.0098 66.3125 35.6387C65.4661 35.2611 64.8118 34.7467 64.3496 34.0957C63.8939 33.4447 63.666 32.7057 63.666 31.8789H65.5508C65.5508 32.7383 65.8665 33.4186 66.498 33.9199C67.1361 34.4147 67.9857 34.6621 69.0469 34.6621C70.0365 34.6621 70.7949 34.4603 71.3223 34.0566C71.8496 33.653 72.1133 33.1029 72.1133 32.4062C72.1133 31.7096 71.8691 31.1725 71.3809 30.7949C70.8926 30.4108 70.0072 30.0332 68.7246 29.6621ZM77.9336 26.7129C78.7344 25.7298 79.776 25.2383 81.0586 25.2383C83.2917 25.2383 84.418 26.498 84.4375 29.0176V36H82.6309V29.0078C82.6243 28.2461 82.4486 27.6829 82.1035 27.3184C81.765 26.9538 81.2344 26.7715 80.5117 26.7715C79.9258 26.7715 79.4115 26.9277 78.9688 27.2402C78.526 27.5527 78.181 27.9629 77.9336 28.4707V36H76.127V21H77.9336V26.7129ZM86.6641 30.6191C86.6641 29.584 86.8659 28.653 87.2695 27.8262C87.6797 26.9993 88.2461 26.3613 88.9688 25.9121C89.6979 25.4629 90.528 25.2383 91.459 25.2383C92.8978 25.2383 94.0599 25.7363 94.9453 26.7324C95.8372 27.7285 96.2832 29.0534 96.2832 30.707V30.834C96.2832 31.8626 96.0846 32.7871 95.6875 33.6074C95.2969 34.4212 94.7337 35.056 93.998 35.5117C93.2689 35.9674 92.429 36.1953 91.4785 36.1953C90.0462 36.1953 88.8841 35.6973 87.9922 34.7012C87.1068 33.7051 86.6641 32.3867 86.6641 30.7461V30.6191ZM88.4805 30.834C88.4805 32.0059 88.7507 32.9466 89.291 33.6562C89.8379 34.3659 90.5671 34.7207 91.4785 34.7207C92.3965 34.7207 93.1257 34.3626 93.666 33.6465C94.2064 32.9238 94.4766 31.9147 94.4766 30.6191C94.4766 29.4603 94.1999 28.5228 93.6465 27.8066C93.0996 27.084 92.3704 26.7227 91.459 26.7227C90.5671 26.7227 89.8477 27.0775 89.3008 27.7871C88.7539 28.4967 88.4805 29.5124 88.4805 30.834ZM107.475 30.834C107.475 32.4421 107.107 33.7376 106.371 34.7207C105.635 35.7038 104.639 36.1953 103.383 36.1953C102.1 36.1953 101.091 35.7884 100.355 34.9746V40.0625H98.5488V25.4336H100.199L100.287 26.6055C101.023 25.694 102.045 25.2383 103.354 25.2383C104.623 25.2383 105.626 25.7168 106.361 26.6738C107.104 27.6309 107.475 28.9622 107.475 30.668V30.834ZM105.668 30.6289C105.668 29.4375 105.414 28.4967 104.906 27.8066C104.398 27.1165 103.702 26.7715 102.816 26.7715C101.723 26.7715 100.902 27.2565 100.355 28.2266V33.2754C100.896 34.2389 101.723 34.7207 102.836 34.7207C103.702 34.7207 104.389 34.3789 104.896 33.6953C105.411 33.0052 105.668 31.9831 105.668 30.6289ZM125.951 36H124.066L116.908 25.043V36H115.023V21.7812H116.908L124.086 32.7871V21.7812H125.951V36ZM133.383 36.1953C131.951 36.1953 130.785 35.7266 129.887 34.7891C128.988 33.8451 128.539 32.5853 128.539 31.0098V30.6777C128.539 29.6296 128.738 28.6953 129.135 27.875C129.538 27.0482 130.098 26.4036 130.814 25.9414C131.537 25.4727 132.318 25.2383 133.158 25.2383C134.532 25.2383 135.6 25.6908 136.361 26.5957C137.123 27.5007 137.504 28.7962 137.504 30.4824V31.2344H130.346C130.372 32.276 130.674 33.1191 131.254 33.7637C131.84 34.4017 132.582 34.7207 133.48 34.7207C134.118 34.7207 134.659 34.5905 135.102 34.3301C135.544 34.0697 135.932 33.7246 136.264 33.2949L137.367 34.1543C136.482 35.515 135.154 36.1953 133.383 36.1953ZM133.158 26.7227C132.429 26.7227 131.817 26.9896 131.322 27.5234C130.827 28.0508 130.521 28.793 130.404 29.75H135.697V29.6133C135.645 28.6953 135.398 27.9857 134.955 27.4844C134.512 26.9766 133.913 26.7227 133.158 26.7227ZM148.959 33.5098L150.99 25.4336H152.797L149.721 36H148.256L145.688 27.9922L143.188 36H141.723L138.656 25.4336H140.453L142.533 33.3438L144.994 25.4336H146.449L148.959 33.5098ZM167.738 32.2891H161.781L160.443 36H158.51L163.939 21.7812H165.58L171.02 36H169.096L167.738 32.2891ZM162.348 30.7461H167.182L164.76 24.0957L162.348 30.7461ZM177.758 27.0547C177.484 27.0091 177.188 26.9863 176.869 26.9863C175.684 26.9863 174.88 27.4909 174.457 28.5V36H172.65V25.4336H174.408L174.438 26.6543C175.03 25.7103 175.87 25.2383 176.957 25.2383C177.309 25.2383 177.576 25.2839 177.758 25.375V27.0547ZM184.535 27.0547C184.262 27.0091 183.965 26.9863 183.646 26.9863C182.462 26.9863 181.658 27.4909 181.234 28.5V36H179.428V25.4336H181.186L181.215 26.6543C181.807 25.7103 182.647 25.2383 183.734 25.2383C184.086 25.2383 184.353 25.2839 184.535 25.375V27.0547ZM188.168 36H186.361V25.4336H188.168V36ZM186.215 22.6309C186.215 22.3379 186.303 22.0905 186.479 21.8887C186.661 21.6868 186.928 21.5859 187.279 21.5859C187.631 21.5859 187.898 21.6868 188.08 21.8887C188.262 22.0905 188.354 22.3379 188.354 22.6309C188.354 22.9238 188.262 23.168 188.08 23.3633C187.898 23.5586 187.631 23.6562 187.279 23.6562C186.928 23.6562 186.661 23.5586 186.479 23.3633C186.303 23.168 186.215 22.9238 186.215 22.6309ZM194.555 33.5488L197.172 25.4336H199.018L195.229 36H193.852L190.023 25.4336H191.869L194.555 33.5488ZM207.123 36C207.019 35.7917 206.934 35.4206 206.869 34.8867C206.029 35.7591 205.027 36.1953 203.861 36.1953C202.82 36.1953 201.964 35.9023 201.293 35.3164C200.629 34.724 200.297 33.9753 200.297 33.0703C200.297 31.9701 200.714 31.1172 201.547 30.5117C202.387 29.8997 203.565 29.5938 205.082 29.5938H206.84V28.7637C206.84 28.1322 206.651 27.6309 206.273 27.2598C205.896 26.8822 205.339 26.6934 204.604 26.6934C203.959 26.6934 203.419 26.8561 202.982 27.1816C202.546 27.5072 202.328 27.901 202.328 28.3633H200.512C200.512 27.8359 200.697 27.3281 201.068 26.8398C201.446 26.3451 201.954 25.9544 202.592 25.668C203.236 25.3815 203.943 25.2383 204.711 25.2383C205.928 25.2383 206.882 25.5443 207.572 26.1562C208.262 26.7617 208.62 27.5983 208.646 28.666V33.5293C208.646 34.4993 208.77 35.2708 209.018 35.8438V36H207.123ZM204.125 34.623C204.691 34.623 205.229 34.4766 205.736 34.1836C206.244 33.8906 206.612 33.5098 206.84 33.041V30.873H205.424C203.21 30.873 202.104 31.5208 202.104 32.8164C202.104 33.3828 202.292 33.8255 202.67 34.1445C203.048 34.4635 203.533 34.623 204.125 34.623ZM213.441 36H211.635V21H213.441V36ZM222.494 33.1973C222.494 32.709 222.309 32.3314 221.938 32.0645C221.573 31.791 220.932 31.5566 220.014 31.3613C219.102 31.166 218.376 30.9316 217.836 30.6582C217.302 30.3848 216.905 30.0592 216.645 29.6816C216.391 29.304 216.264 28.8548 216.264 28.334C216.264 27.4681 216.628 26.7357 217.357 26.1367C218.093 25.5378 219.031 25.2383 220.17 25.2383C221.368 25.2383 222.338 25.5475 223.08 26.166C223.829 26.7845 224.203 27.5755 224.203 28.5391H222.387C222.387 28.0443 222.175 27.6178 221.752 27.2598C221.335 26.9017 220.808 26.7227 220.17 26.7227C219.512 26.7227 218.998 26.8659 218.627 27.1523C218.256 27.4388 218.07 27.8132 218.07 28.2754C218.07 28.7116 218.243 29.0404 218.588 29.2617C218.933 29.4831 219.555 29.6947 220.453 29.8965C221.358 30.0983 222.09 30.3392 222.65 30.6191C223.21 30.8991 223.624 31.2376 223.891 31.6348C224.164 32.0254 224.301 32.5039 224.301 33.0703C224.301 34.0143 223.923 34.7728 223.168 35.3457C222.413 35.9121 221.433 36.1953 220.229 36.1953C219.382 36.1953 218.633 36.0456 217.982 35.7461C217.331 35.4466 216.82 35.0299 216.449 34.4961C216.085 33.9557 215.902 33.373 215.902 32.748H217.709C217.742 33.3535 217.982 33.8353 218.432 34.1934C218.887 34.5449 219.486 34.7207 220.229 34.7207C220.912 34.7207 221.459 34.584 221.869 34.3105C222.286 34.0306 222.494 33.6595 222.494 33.1973Z" fill="#F7F7F7"/>
</svg>
