<svg width="320" height="66" viewBox="0 0 320 66" fill="none" xmlns="http://www.w3.org/2000/svg">
    <path d="M270.916 8.88969C270.935 9.15617 270.935 9.42271 270.935 9.6892C270.935 17.8173 264.749 27.1828 253.442 27.1828C249.958 27.1828 246.722 26.1739 244 24.4227C244.495 24.4798 244.971 24.4988 245.485 24.4988C248.359 24.4988 251.005 23.528 253.118 21.872C250.415 21.8148 248.15 20.0445 247.369 17.608C247.75 17.665 248.131 17.7031 248.53 17.7031C249.082 17.7031 249.635 17.627 250.148 17.4938C247.331 16.9227 245.218 14.4481 245.218 11.4595V11.3834C246.037 11.8402 246.989 12.1258 247.997 12.1638C246.341 11.0597 245.256 9.17522 245.256 7.04322C245.256 5.90111 245.561 4.85416 246.094 3.94045C249.121 7.67141 253.67 10.1079 258.771 10.3745C258.676 9.9176 258.619 9.44176 258.619 8.96586C258.619 5.5775 261.36 2.81738 264.768 2.81738C266.538 2.81738 268.137 3.55977 269.26 4.759C270.65 4.49252 271.982 3.97854 273.162 3.27424C272.705 4.70193 271.735 5.90117 270.459 6.66254C271.697 6.52936 272.896 6.18664 274 5.7108C273.162 6.92902 272.115 8.014 270.916 8.88969Z" fill="black"/>
    <g clip-path="url(#clip0)">
        <path d="M213.007 8.26172C208.748 8.26172 205.313 11.2676 205.313 14.9941C205.313 18.7207 208.748 21.7266 213.007 21.7266C217.266 21.7266 220.701 18.7207 220.701 14.9941C220.701 11.2676 217.266 8.26172 213.007 8.26172ZM213.007 19.3711C210.254 19.3711 208.004 17.4082 208.004 14.9941C208.004 12.5801 210.248 10.6172 213.007 10.6172C215.766 10.6172 218.009 12.5801 218.009 14.9941C218.009 17.4082 215.759 19.3711 213.007 19.3711ZM222.81 7.98633C222.81 8.85937 222.007 9.55664 221.016 9.55664C220.018 9.55664 219.221 8.85351 219.221 7.98633C219.221 7.11914 220.025 6.41601 221.016 6.41601C222.007 6.41601 222.81 7.11914 222.81 7.98633ZM227.906 9.58007C227.792 7.47656 227.243 5.61328 225.482 4.07812C223.728 2.54297 221.598 2.0625 219.194 1.95703C216.717 1.83398 209.29 1.83398 206.813 1.95703C204.415 2.05664 202.286 2.53711 200.525 4.07226C198.763 5.60742 198.221 7.4707 198.1 9.57421C197.96 11.7422 197.96 18.2402 198.1 20.4082C198.214 22.5117 198.763 24.375 200.525 25.9101C202.286 27.4453 204.408 27.9258 206.813 28.0312C209.29 28.1543 216.717 28.1543 219.194 28.0312C221.598 27.9316 223.728 27.4512 225.482 25.9101C227.237 24.375 227.786 22.5117 227.906 20.4082C228.047 18.2402 228.047 11.748 227.906 9.58007ZM224.705 22.7344C224.183 23.8828 223.172 24.7676 221.853 25.2305C219.877 25.916 215.19 25.7578 213.007 25.7578C210.824 25.7578 206.129 25.9101 204.161 25.2305C202.848 24.7734 201.837 23.8887 201.308 22.7344C200.525 21.0058 200.705 16.9043 200.705 14.9941C200.705 13.084 200.531 8.97656 201.308 7.2539C201.83 6.10547 202.842 5.2207 204.161 4.75781C206.136 4.07226 210.824 4.23047 213.007 4.23047C215.19 4.23047 219.884 4.07812 221.853 4.75781C223.165 5.21484 224.176 6.09961 224.705 7.2539C225.489 8.98242 225.308 13.084 225.308 14.9941C225.308 16.9043 225.489 21.0117 224.705 22.7344Z" fill="black"/>
    </g>
    <path d="M320 3.32227V26.6719C320 27.4746 319.257 28.1191 318.346 28.1191H310.699V17.959H314.596L315.179 13.998H310.692V11.4668C310.692 10.3184 311.054 9.53906 312.935 9.53906H315.333V5.99414C314.917 5.94727 313.498 5.83594 311.837 5.83594C308.382 5.83594 306.011 7.68164 306.011 11.0742V13.998H302.1V17.959H306.011V28.125H291.654C290.743 28.125 290 27.4746 290 26.6777V3.32227C290 2.52539 290.743 1.875 291.654 1.875H318.339C319.257 1.875 320 2.52539 320 3.32227Z" fill="black"/>
    <defs>
        <clipPath id="clip0">
            <rect width="30" height="30" fill="white" transform="translate(198)"/>
        </clipPath>
    </defs>
</svg>
